<svg width="156" height="30" viewBox="0 0 156 30" fill="none" xmlns="http://www.w3.org/2000/svg">
<path d="M42.544 24H40.024C39.48 24 39.12 23.912 38.944 23.736C38.784 23.56 38.704 23.192 38.704 22.632V8.016C38.704 7.456 38.784 7.088 38.944 6.912C39.12 6.736 39.48 6.648 40.024 6.648H42.544V24ZM49.8576 12H53.2176C54.9616 12 55.8336 12.856 55.8336 14.568V24H53.0976C52.8416 24 52.6336 23.912 52.4736 23.736C52.3136 23.56 52.2336 23.328 52.2336 23.04V14.52C52.2336 14.264 52.1696 14.08 52.0416 13.968C51.9296 13.856 51.6656 13.8 51.2496 13.8H49.8576V12ZM45.6576 12H47.1216C47.8256 12 48.3536 12.176 48.7056 12.528C49.0736 12.864 49.2576 13.304 49.2576 13.848V24H46.5216C46.2656 24 46.0576 23.912 45.8976 23.736C45.7376 23.56 45.6576 23.328 45.6576 23.04V12ZM61.8597 12V16.392C61.8597 16.664 61.8997 16.856 61.9797 16.968C62.0597 17.064 62.2677 17.112 62.6037 17.112H63.9477V18.912H60.8757C59.1317 18.912 58.2597 18.056 58.2597 16.344V14.664C58.2597 13.608 58.5237 12.904 59.0517 12.552C59.5957 12.184 60.5317 12 61.8597 12ZM61.9077 20.208V21.48C61.9077 21.752 61.9477 21.944 62.0277 22.056C62.1077 22.152 62.3157 22.2 62.6517 22.2H63.9477V24H60.9237C59.1797 24 58.3077 23.144 58.3077 21.432V20.712C58.3077 20.472 58.3317 20.336 58.3797 20.304C58.4437 20.272 58.4837 20.256 58.4997 20.256C58.5157 20.24 58.5557 20.232 58.6197 20.232C58.6997 20.216 58.7477 20.208 58.7637 20.208C59.8197 20.208 60.8677 20.208 61.9077 20.208ZM64.6677 17.112H65.6517C67.3957 17.112 68.2677 17.968 68.2677 19.68V21.336C68.2677 22.392 67.9957 23.104 67.4517 23.472C66.9237 23.824 65.9957 24 64.6677 24V17.112ZM62.5797 12H65.6037C67.3477 12 68.2197 12.856 68.2197 14.568V15.816C67.1477 15.816 66.3317 15.816 65.7717 15.816C65.2117 15.816 64.9237 15.816 64.9077 15.816C64.8917 15.8 64.8597 15.792 64.8117 15.792C64.7797 15.776 64.7557 15.76 64.7397 15.744C64.7237 15.728 64.7077 15.712 64.6917 15.696C64.6757 15.664 64.6677 15.632 64.6677 15.6C64.6357 15.472 64.6197 15.376 64.6197 15.312V14.52C64.6197 14.248 64.5797 14.064 64.4997 13.968C64.4197 13.856 64.2117 13.8 63.8757 13.8H62.5797V12ZM76.8318 23.808C76.8318 23.904 76.7838 23.968 76.6878 24H74.8638C73.6958 24 72.8478 23.768 72.3198 23.304C71.7918 22.84 71.5278 22.024 71.5278 20.856V13.848H70.3038C69.9038 13.848 69.7038 13.608 69.7038 13.128V12H71.5278V6.648H72.9918C73.6958 6.648 74.2238 6.824 74.5758 7.176C74.9438 7.528 75.1278 7.976 75.1278 8.52V21.288C75.1278 21.88 75.4638 22.176 76.1358 22.176H76.6398C76.7678 22.176 76.8318 22.232 76.8318 22.344V23.808ZM77.5758 12V13.128C77.5758 13.608 77.3758 13.848 76.9758 13.848H75.7278V12H77.5758ZM84.9818 13.8H83.6858C83.1898 13.8 82.9098 13.888 82.8458 14.064C82.7498 14.272 82.7018 14.568 82.7018 14.952V21.048C82.7018 21.08 82.7018 21.176 82.7018 21.336C82.7018 21.496 82.7178 21.632 82.7498 21.744C82.8138 22.048 83.1258 22.2 83.6858 22.2H84.9818V24H82.6538C82.0458 24 81.5498 23.976 81.1658 23.928C80.7818 23.864 80.4458 23.736 80.1578 23.544C79.8698 23.352 79.6538 23.144 79.5098 22.92C79.3658 22.68 79.2458 22.304 79.1498 21.792C79.0378 21.072 78.9818 20.064 78.9818 18.768C78.9818 17.472 78.9898 16.6 79.0058 16.152C79.0218 15.688 79.0458 15.2 79.0778 14.688C79.1258 14.176 79.1978 13.8 79.2938 13.56C79.4058 13.32 79.5418 13.08 79.7018 12.84C79.8778 12.584 80.1018 12.408 80.3738 12.312C80.9658 12.104 81.7258 12 82.6538 12H84.9818V13.8ZM90.3818 23.832C90.3818 23.944 90.3498 24 90.2858 24H88.3178C87.4218 24 86.7578 23.792 86.3258 23.376C85.9098 22.96 85.7018 22.28 85.7018 21.336V12H86.6858C87.6938 12 88.3818 12.24 88.7498 12.72C89.1178 13.184 89.3018 13.8 89.3018 14.568V21.288C89.3018 21.784 89.4058 22.064 89.6138 22.128C89.7258 22.176 89.8778 22.2 90.0698 22.2H90.1898C90.3178 22.2 90.3818 22.256 90.3818 22.368V23.832ZM95.5628 12V16.392C95.5628 16.664 95.6028 16.856 95.6828 16.968C95.7628 17.064 95.9708 17.112 96.3068 17.112H97.6508V18.912H94.5788C92.8348 18.912 91.9628 18.056 91.9628 16.344V14.664C91.9628 13.608 92.2268 12.904 92.7548 12.552C93.2988 12.184 94.2348 12 95.5628 12ZM95.6108 20.208V21.48C95.6108 21.752 95.6508 21.944 95.7308 22.056C95.8108 22.152 96.0188 22.2 96.3548 22.2H97.6508V24H94.6268C92.8828 24 92.0108 23.144 92.0108 21.432V20.712C92.0108 20.472 92.0348 20.336 92.0828 20.304C92.1468 20.272 92.1868 20.256 92.2028 20.256C92.2188 20.24 92.2588 20.232 92.3228 20.232C92.4028 20.216 92.4508 20.208 92.4668 20.208C93.5228 20.208 94.5708 20.208 95.6108 20.208ZM98.3708 17.112H99.3548C101.099 17.112 101.971 17.968 101.971 19.68V21.336C101.971 22.392 101.699 23.104 101.155 23.472C100.627 23.824 99.6988 24 98.3708 24V17.112ZM96.2828 12H99.3068C101.051 12 101.923 12.856 101.923 14.568V15.816C100.851 15.816 100.035 15.816 99.4748 15.816C98.9148 15.816 98.6268 15.816 98.6108 15.816C98.5948 15.8 98.5628 15.792 98.5148 15.792C98.4828 15.776 98.4588 15.76 98.4428 15.744C98.4268 15.728 98.4108 15.712 98.3948 15.696C98.3788 15.664 98.3708 15.632 98.3708 15.6C98.3388 15.472 98.3228 15.376 98.3228 15.312V14.52C98.3228 14.248 98.2828 14.064 98.2028 13.968C98.1228 13.856 97.9148 13.8 97.5788 13.8H96.2828V12ZM108.639 12H111.999C113.743 12 114.615 12.856 114.615 14.568V24H111.879C111.623 24 111.415 23.912 111.255 23.736C111.095 23.56 111.015 23.328 111.015 23.04V14.52C111.015 14.264 110.951 14.08 110.823 13.968C110.711 13.856 110.447 13.8 110.031 13.8H108.639V12ZM104.439 12H105.903C106.607 12 107.135 12.176 107.487 12.528C107.855 12.864 108.039 13.304 108.039 13.848V24H105.303C105.047 24 104.839 23.912 104.679 23.736C104.519 23.56 104.439 23.328 104.439 23.04V12ZM123.185 13.8H121.889C121.393 13.8 121.113 13.888 121.049 14.064C120.953 14.272 120.905 14.568 120.905 14.952V21.048C120.905 21.08 120.905 21.176 120.905 21.336C120.905 21.496 120.921 21.632 120.953 21.744C121.017 22.048 121.329 22.2 121.889 22.2H123.185V24H120.857C120.249 24 119.753 23.976 119.369 23.928C118.985 23.864 118.649 23.736 118.361 23.544C118.073 23.352 117.857 23.144 117.713 22.92C117.569 22.68 117.449 22.304 117.353 21.792C117.241 21.072 117.185 20.064 117.185 18.768C117.185 17.472 117.193 16.6 117.209 16.152C117.225 15.688 117.249 15.2 117.281 14.688C117.329 14.176 117.401 13.8 117.497 13.56C117.609 13.32 117.745 13.08 117.905 12.84C118.081 12.584 118.305 12.408 118.577 12.312C119.169 12.104 119.929 12 120.857 12H123.185V13.8ZM128.585 23.832C128.585 23.944 128.553 24 128.489 24H126.521C125.625 24 124.961 23.792 124.529 23.376C124.113 22.96 123.905 22.28 123.905 21.336V12H124.889C125.897 12 126.585 12.24 126.953 12.72C127.321 13.184 127.505 13.8 127.505 14.568V21.288C127.505 21.784 127.609 22.064 127.817 22.128C127.929 22.176 128.081 22.2 128.273 22.2H128.393C128.521 22.2 128.585 22.256 128.585 22.368V23.832ZM134.774 12H137.102C138.686 12 139.662 12.272 140.03 12.816C140.206 13.072 140.342 13.32 140.438 13.56C140.55 13.8 140.622 14.176 140.654 14.688C140.734 15.616 140.774 16.648 140.774 17.784C140.774 18.92 140.766 19.744 140.75 20.256C140.734 20.752 140.678 21.264 140.582 21.792C140.502 22.304 140.39 22.68 140.246 22.92C140.102 23.144 139.886 23.352 139.598 23.544C139.31 23.736 138.974 23.864 138.59 23.928C138.206 23.976 137.71 24 137.102 24H134.774V22.2H136.07C136.486 22.2 136.75 22.144 136.862 22.032C136.99 21.92 137.054 21.744 137.054 21.504V14.52C137.054 14.264 136.99 14.08 136.862 13.968C136.75 13.856 136.486 13.8 136.07 13.8H134.774V12ZM134.054 29.352H132.59C131.886 29.352 131.35 29.176 130.982 28.824C130.63 28.488 130.454 28.048 130.454 27.504V13.848C130.454 13.304 130.63 12.864 130.982 12.528C131.35 12.176 131.886 12 132.59 12H134.054V29.352Z" fill="white"/>
<path fill-rule="evenodd" clip-rule="evenodd" d="M27.8333 15C27.8333 22.0877 22.0877 27.8333 15 27.8333C7.91234 27.8333 2.16666 22.0877 2.16666 15C2.16666 7.9123 7.91234 2.16666 15 2.16666C22.0877 2.16666 27.8333 7.9123 27.8333 15ZM30 15C30 23.2843 23.2843 30 15 30C6.71573 30 0 23.2843 0 15C0 6.71573 6.71573 0 15 0C23.2843 0 30 6.71573 30 15ZM23.2759 8.2759C23.2759 9.1329 22.5812 9.8276 21.7242 9.8276C20.8672 9.8276 20.1725 9.1329 20.1725 8.2759C20.1725 7.4189 20.8672 6.72418 21.7242 6.72418C22.5812 6.72418 23.2759 7.4189 23.2759 8.2759ZM10.4879 16.209C11.1556 18.7009 13.717 20.1797 16.2089 19.512C18.7008 18.8443 20.1796 16.2829 19.5119 13.791C18.8442 11.2991 16.2828 9.8203 13.7909 10.488C11.299 11.1557 9.82015 13.7171 10.4879 16.209ZM8.39503 16.7698C9.37244 20.4175 13.1219 22.5823 16.7696 21.6049C20.4174 20.6274 22.5821 16.878 21.6047 13.2302C20.6273 9.5825 16.8779 7.4177 13.2301 8.3952C9.58236 9.3726 7.41762 13.122 8.39503 16.7698Z" fill="url(#paint0_linear_54_8)"/>
<defs>
<linearGradient id="paint0_linear_54_8" x1="15" y1="0" x2="15" y2="30" gradientUnits="userSpaceOnUse">
<stop stop-color="#877EFF"/>
<stop offset="0.461458" stop-color="#685DFF"/>
<stop offset="1" stop-color="#3121FF"/>
</linearGradient>
</defs>
</svg>
